<svg xmlns="http://www.w3.org/2000/svg" viewBox="0 0 520 760" fill="none" stroke-width="9" stroke-linecap="round" stroke-linejoin="round">
<g opacity="0.28">
  <g transform="translate(590.0 300) scale(-1.5 1.5)" stroke="#DE9F52">
    <path d="M252 60C246 36 224 24 202 32C178 42 170 66 166 84C158 120 126 150 98 186C78 212 52 236 20 254C54 266 90 262 118 246C150 242 190 232 220 204C246 178 256 142 250 108C250 100 251 95 250 90"/>
    <path d="M252 60L286 74L250 90"/>
    <path d="M226 62m-3.5 0a3.5 3.5 0 1 0 7 0a3.5 3.5 0 1 0 -7 0" fill="#DE9F52"/>
    <path d="M186 124C220 140 218 184 188 206C168 220 134 220 112 206C130 174 154 140 186 124"/>
    <path d="M150 192C164 178 178 168 194 160"/>
    <path d="M168 238L166 262M196 232L196 262M154 264L178 264M186 264L210 264"/>
    <path d="M110 276C150 268 220 272 270 268"/>
  </g>
</g>
<path d="M540 180C440 140 340 220 220 170" stroke="#E8C25A" stroke-width="30" opacity="0.14"/>
<path d="M540 700C440 660 360 720 260 690" stroke="#C9795F" stroke-width="24" opacity="0.1"/>
</svg>
